<?xml version="1.0" standalone="no"?><!DOCTYPE svg PUBLIC "-//W3C//DTD SVG 1.1//EN" "http://www.w3.org/Graphics/SVG/1.1/DTD/svg11.dtd"><svg height="1024" node-id="1" sillyvg="true" template-height="1024" template-width="1024" version="1.1" viewBox="0 0 1024 1024" width="1024" xmlns="http://www.w3.org/2000/svg" xmlns:xlink="http://www.w3.org/1999/xlink"><defs node-id="164"><linearGradient gradientUnits="objectBoundingBox" id="linearGradient-1" node-id="5" spreadMethod="pad" x1="0.5" x2="0.5" y1="-0.2988559" y2="0.44050124"><stop offset="0" stop-color="#cfdffa"></stop><stop offset="1" stop-color="#eaf0fc" stop-opacity="0"></stop></linearGradient><linearGradient gradientUnits="objectBoundingBox" id="linearGradient-2" node-id="8" spreadMethod="pad" x1="0.5" x2="0.536227" y1="0.33755898" y2="0.6981384"><stop offset="0" stop-color="#cfdffa"></stop><stop offset="1" stop-color="#eaf0fc" stop-opacity="0"></stop></linearGradient><linearGradient gradientUnits="objectBoundingBox" id="linearGradient-3" node-id="11" spreadMethod="pad" x1="0.5" x2="0.536227" y1="0.3648075" y2="0.6649019"><stop offset="0" stop-color="#cfdffa"></stop><stop offset="1" stop-color="#eaf0fc" stop-opacity="0"></stop></linearGradient><linearGradient gradientUnits="objectBoundingBox" id="linearGradient-4" node-id="14" spreadMethod="pad" x1="0.5" x2="0.5728358" y1="0.11497374" y2="1"><stop offset="0" stop-color="#bfd4fa"></stop><stop offset="1" stop-color="#5792f0"></stop></linearGradient><linearGradient gradientUnits="objectBoundingBox" id="linearGradient-5" node-id="17" spreadMethod="pad" x1="0.5" x2="0.5194098" y1="0.11497374" y2="1.3188101"><stop offset="0" stop-color="#bfd4fa"></stop><stop offset="1" stop-color="#5792f0"></stop></linearGradient><linearGradient gradientUnits="objectBoundingBox" id="linearGradient-6" node-id="20" spreadMethod="pad" x1="0.5" x2="0.7428279" y1="0.13104583" y2="1.2846308"><stop offset="0" stop-color="#bfd4fa"></stop><stop offset="1" stop-color="#5792f0"></stop></linearGradient><linearGradient gradientUnits="objectBoundingBox" id="linearGradient-7" node-id="23" spreadMethod="pad" x1="0.5" x2="0.5407523" y1="0.11497374" y2="1.3188101"><stop offset="0" stop-color="#bfd4fa"></stop><stop offset="1" stop-color="#5792f0"></stop></linearGradient><linearGradient gradientUnits="objectBoundingBox" id="linearGradient-8" node-id="26" spreadMethod="pad" x1="0.5" x2="0.5198048" y1="0.11497374" y2="1.3188101"><stop offset="0" stop-color="#bfd4fa"></stop><stop offset="1" stop-color="#5792f0"></stop></linearGradient><linearGradient gradientUnits="objectBoundingBox" id="linearGradient-9" node-id="29" spreadMethod="pad" x1="0.5" x2="0.5536682" y1="0.11497374" y2="1.3188101"><stop offset="0" stop-color="#bfd4fa"></stop><stop offset="1" stop-color="#5792f0"></stop></linearGradient><linearGradient gradientUnits="objectBoundingBox" id="linearGradient-10" node-id="32" spreadMethod="pad" x1="0.5" x2="0.7428279" y1="0.48259887" y2="0.5370059"><stop offset="0" stop-color="#bfd4fa"></stop><stop offset="1" stop-color="#5792f0"></stop></linearGradient><linearGradient gradientUnits="objectBoundingBox" id="linearGradient-11" node-id="35" spreadMethod="pad" x1="0.46534672" x2="0.539888" y1="-0.31010887" y2="1.9172623"><stop offset="0" stop-color="#bfd4fa"></stop><stop offset="1" stop-color="#5792f0"></stop></linearGradient><linearGradient gradientUnits="objectBoundingBox" id="linearGradient-12" node-id="38" spreadMethod="pad" x1="0.5" x2="1.3541083" y1="0.3446644" y2="3.432128"><stop offset="0" stop-color="#bfd4fa"></stop><stop offset="1" stop-color="#5792f0"></stop></linearGradient><linearGradient gradientUnits="objectBoundingBox" id="linearGradient-13" node-id="41" spreadMethod="pad" x1="0.5" x2="0.7428279" y1="0.4295771" y2="0.6497637"><stop offset="0" stop-color="#bfd4fa"></stop><stop offset="1" stop-color="#5792f0"></stop></linearGradient><linearGradient gradientUnits="objectBoundingBox" id="linearGradient-14" node-id="44" spreadMethod="pad" x1="0.17923278" x2="1.2116245" y1="0.40854794" y2="0.7832705"><stop offset="0" stop-color="#bfd4fa"></stop><stop offset="1" stop-color="#5792f0"></stop></linearGradient><linearGradient gradientUnits="objectBoundingBox" id="linearGradient-15" node-id="47" spreadMethod="pad" x1="0.07037017" x2="0.6698116" y1="0.18046616" y2="0.62186456"><stop offset="0" stop-color="#5792f0"></stop><stop offset="1" stop-color="#bfd4fa"></stop></linearGradient><linearGradient gradientUnits="objectBoundingBox" id="linearGradient-16" node-id="50" spreadMethod="pad" x1="0.59078556" x2="0.5389013" y1="-0.9163266" y2="0.9387078"><stop offset="0" stop-color="#5792f0"></stop><stop offset="1" stop-color="#bfd4fa" stop-opacity="0"></stop></linearGradient><linearGradient gradientUnits="objectBoundingBox" id="linearGradient-17" node-id="53" spreadMethod="pad" x1="0.18812057" x2="0.8589925" y1="-0.31010887" y2="1.9172623"><stop offset="0" stop-color="#bfd4fa"></stop><stop offset="1" stop-color="#5792f0"></stop></linearGradient><linearGradient gradientUnits="objectBoundingBox" id="linearGradient-18" node-id="56" spreadMethod="pad" x1="0.17007332" x2="1.9242505" y1="0.27163032" y2="0.91128486"><stop offset="0" stop-color="#bfd4fa"></stop><stop offset="1" stop-color="#5d96f1"></stop></linearGradient><linearGradient gradientUnits="objectBoundingBox" id="linearGradient-19" node-id="59" spreadMethod="pad" x1="0.3666347" x2="0.68703485" y1="-0.31010884" y2="0.99999994"><stop offset="0" stop-color="#bfd4fa"></stop><stop offset="1" stop-color="#5792f0"></stop></linearGradient><linearGradient gradientUnits="objectBoundingBox" id="linearGradient-20" node-id="62" spreadMethod="pad" x1="0.36663654" x2="0.6870323" y1="-0.31010884" y2="0.99999994"><stop offset="0" stop-color="#bfd4fa"></stop><stop offset="1" stop-color="#5792f0"></stop></linearGradient><linearGradient gradientUnits="objectBoundingBox" id="linearGradient-21" node-id="65" spreadMethod="pad" x1="0.37087244" x2="0.6810917" y1="-0.31010884" y2="0.99999994"><stop offset="0" stop-color="#bfd4fa"></stop><stop offset="1" stop-color="#5792f0"></stop></linearGradient><linearGradient gradientUnits="objectBoundingBox" id="linearGradient-22" node-id="68" spreadMethod="pad" x1="-0.38711703" x2="0.9365042" y1="0" y2="1"><stop offset="0" stop-color="#bfd4fa"></stop><stop offset="1" stop-color="#5792f0"></stop></linearGradient><linearGradient gradientUnits="objectBoundingBox" id="linearGradient-24" node-id="72" spreadMethod="pad" x1="-0.4116511" x2="0.94857615" y1="0" y2="1"><stop offset="0" stop-color="#bfd4fa"></stop><stop offset="1" stop-color="#5792f0"></stop></linearGradient><linearGradient gradientUnits="objectBoundingBox" id="linearGradient-26" node-id="76" spreadMethod="pad" x1="0.025402002" x2="0.73352504" y1="0" y2="1"><stop offset="0" stop-color="#bfd4fa"></stop><stop offset="1" stop-color="#5792f0"></stop></linearGradient><linearGradient gradientUnits="objectBoundingBox" id="linearGradient-28" node-id="80" spreadMethod="pad" x1="-0.22451092" x2="0.8564942" y1="0" y2="1"><stop offset="0" stop-color="#bfd4fa"></stop><stop offset="1" stop-color="#5792f0"></stop></linearGradient><linearGradient gradientUnits="objectBoundingBox" id="linearGradient-30" node-id="84" spreadMethod="pad" x1="-0.5161609" x2="1" y1="0.4845818" y2="0.51541823"><stop offset="0" stop-color="#bfd4fa"></stop><stop offset="1" stop-color="#5792f0"></stop></linearGradient><linearGradient gradientUnits="objectBoundingBox" id="linearGradient-32" node-id="88" spreadMethod="pad" x1="0.5" x2="0.5" y1="-0.19003877" y2="1"><stop offset="0" stop-color="#ffcda5"></stop><stop offset="1" stop-color="#ffe8d1"></stop></linearGradient><linearGradient gradientUnits="objectBoundingBox" id="linearGradient-33" node-id="91" spreadMethod="pad" x1="0.5" x2="0.5" y1="0" y2="1"><stop offset="0" stop-color="#fff2df"></stop><stop offset="1" stop-color="#fee0bc"></stop></linearGradient><linearGradient gradientUnits="objectBoundingBox" id="linearGradient1" node-id="334" spreadMethod="pad" x1="0.14347483" x2="1" y1="0.11490436" y2="0.73768145"><stop offset="0" stop-color="#bfd4fa"></stop><stop offset="1" stop-color="#5792f0"></stop></linearGradient><linearGradient gradientUnits="objectBoundingBox" id="linearGradient-34" node-id="94" spreadMethod="pad" x1="0.8565252" x2="0" y1="0.11490436" y2="0.73768145"><stop offset="0" stop-color="#bfd4fa"></stop><stop offset="1" stop-color="#5792f0"></stop></linearGradient><linearGradient gradientUnits="objectBoundingBox" id="linearGradient-35" node-id="97" spreadMethod="pad" x1="0.43541646" x2="0.5905736" y1="-0.31010887" y2="1"><stop offset="0" stop-color="#bfd4fa"></stop><stop offset="1" stop-color="#5792f0"></stop></linearGradient><linearGradient gradientUnits="objectBoundingBox" id="linearGradient-36" node-id="100" spreadMethod="pad" x1="0.5" x2="0.5" y1="0" y2="1"><stop offset="0" stop-color="#fee127"></stop><stop offset="1" stop-color="#f9ab21"></stop></linearGradient></defs><path d="M 0.00 0.00 L 1024.00 0.00 L 1024.00 1024.00 L 0.00 1024.00 Z" fill="none" id="矩形" node-id="104" stroke="none" target-height="1024" target-width="1024" target-x="0" target-y="0"></path><g node-id="465"><g node-id="466"><path d="M 992.00 930.73 C 992.00 997.02 941.43 1060.59 851.41 1107.47 C 761.39 1154.34 639.30 1180.67 512.00 1180.67 C 384.70 1180.67 262.61 1154.34 172.59 1107.47 C 82.57 1060.59 32.00 997.02 32.00 930.73 C 32.00 864.44 82.57 800.87 172.59 753.99 C 262.61 707.12 384.70 680.79 512.00 680.79 C 639.30 680.79 761.39 707.12 851.41 753.99 C 941.43 800.87 992.00 864.44 992.00 930.73 Z" fill="url(#linearGradient-1)" fill-rule="evenodd" group-id="1,2" id="椭圆形" node-id="107" stroke="none" target-height="499.88562" target-width="960" target-x="32" target-y="680.786"></path><path d="M 846.00 281.09 C 846.00 295.48 832.18 306.99 814.73 306.99 L 718.00 306.99 C 700.55 305.84 686.00 294.90 686.00 279.94 C 686.00 270.15 692.55 261.52 702.00 256.91 C 701.27 255.19 700.55 253.46 700.55 251.73 C 700.55 241.95 710.00 233.31 722.36 233.31 C 727.45 233.31 731.82 235.04 735.45 237.34 C 744.18 224.10 760.18 214.89 779.09 214.89 C 805.27 214.89 826.36 232.74 826.36 254.61 L 826.36 256.91 C 838.00 260.94 846.00 270.15 846.00 281.09 Z" fill="url(#linearGradient-2)" fill-rule="evenodd" group-id="1,2" id="云" node-id="108" stroke="none" target-height="92.10016" target-width="160" target-x="686" target-y="214.89255"></path><path d="M 198.22 164.90 C 222.90 164.90 243.89 180.67 251.66 202.67 L 288.50 202.67 C 298.16 202.67 306.00 210.51 306.00 220.17 L 306.00 262.93 C 306.00 272.60 298.16 280.43 288.50 280.43 L 110.17 280.43 C 100.50 280.43 92.67 272.60 92.67 262.93 L 92.67 250.53 C 88.44 243.73 86.00 235.71 86.00 227.11 C 86.00 202.57 105.90 182.68 130.44 182.68 C 138.38 182.68 145.83 184.76 152.27 188.40 C 162.57 174.16 179.31 164.90 198.22 164.90 Z" fill="url(#linearGradient-3)" fill-rule="evenodd" group-id="1,2" id="云" node-id="109" stroke="none" target-height="115.529144" target-width="220" target-x="86" target-y="164.90399"></path><g node-id="469"><path d="M 241.60 812.76 C 241.60 814.96 235.87 816.75 228.80 816.75 C 221.73 816.75 216.00 814.96 216.00 812.76 C 216.00 810.55 221.73 808.76 228.80 808.76 C 235.87 808.76 241.60 810.55 241.60 812.76 Z" fill="#ccdcf6" fill-rule="evenodd" group-id="1,2,5" id="椭圆形" node-id="111" stroke="none" target-height="7.998169" target-width="25.600006" target-x="216" target-y="808.7567"></path><path d="M 215.21 811.19 C 216.95 782.09 224.25 765.25 237.12 760.66 C 242.18 759.98 247.82 758.97 243.89 765.53 C 239.95 772.09 229.42 769.54 218.88 811.17 C 217.93 812.95 216.70 812.96 215.21 811.19 Z" fill="url(#linearGradient-4)" fill-rule="nonzero" group-id="1,2,5" id="路径-42" node-id="112" stroke="none" target-height="53.990417" target-width="32.612976" target-x="215.2097" target-y="758.9678"></path><path d="M 214.97 810.83 C 211.55 783.64 208.75 766.55 206.57 759.55 C 203.30 749.04 196.34 728.81 210.82 736.46 C 225.31 744.11 227.02 783.36 220.33 807.25 C 218.25 813.29 216.46 814.49 214.97 810.83 Z" fill="url(#linearGradient-5)" fill-rule="nonzero" group-id="1,2,5" id="路径-41" node-id="113" stroke="none" target-height="85.67499" target-width="30.686737" target-x="196.33743" target-y="728.81104"></path></g><g node-id="470"><path d="M 783.98 775.63 C 781.46 764.17 774.11 756.16 761.92 751.60 C 748.00 747.13 740.37 741.81 749.08 737.95 C 756.44 737.37 772.12 731.64 783.98 765.85 C 784.80 769.17 784.80 772.43 783.98 775.63 Z" fill="url(#linearGradient-6)" fill-rule="nonzero" group-id="1,2,6" id="路径-43" node-id="115" stroke="none" target-height="43.991028" target-width="44.433228" target-x="740.36975" target-y="731.643"></path><path d="M 784.60 777.45 C 777.27 750.09 768.94 730.12 759.61 717.53 C 752.77 708.93 753.25 696.61 759.61 693.83 C 766.13 693.11 778.14 691.99 787.19 739.14 C 787.76 742.38 790.95 761.35 787.19 773.60 C 786.63 775.28 785.77 776.56 784.60 777.45 Z" fill="url(#linearGradient-7)" fill-rule="nonzero" group-id="1,2,6" id="路径-44" node-id="116" stroke="none" target-height="85.465576" target-width="38.17993" target-x="752.7655" target-y="691.98615"></path><path d="M 786.29 771.27 C 789.61 759.03 789.18 743.06 785.03 723.35 C 778.67 704.25 767.81 680.75 787.60 680.21 C 795.62 681.30 805.32 689.72 801.65 731.64 C 799.42 748.56 795.54 758.55 791.47 771.27 C 790.05 772.07 788.32 772.07 786.29 771.27 Z" fill="url(#linearGradient-8)" fill-rule="nonzero" group-id="1,2,6" id="路径-45" node-id="117" stroke="none" target-height="91.85278" target-width="37.505005" target-x="767.81244" target-y="680.2128"></path><path d="M 790.16 776.03 C 788.84 741.41 795.17 716.57 809.17 701.50 C 812.95 696.46 827.34 691.75 827.28 707.53 C 825.78 714.32 822.57 728.81 804.04 750.92 C 797.94 758.90 793.92 770.56 793.89 773.29 C 793.86 775.11 792.62 776.03 790.16 776.03 Z" fill="url(#linearGradient-9)" fill-rule="nonzero" group-id="1,2,6" id="路径-46" node-id="118" stroke="none" target-height="84.27869" target-width="38.502014" target-x="788.8357" target-y="691.7482"></path><path d="M 718.12 780.60 C 731.98 778.01 739.63 775.82 741.06 774.02 C 743.20 771.31 762.07 759.70 773.83 769.48 C 776.39 766.19 784.60 763.63 789.30 769.48 C 791.45 760.25 804.87 754.33 810.70 755.29 C 817.27 754.78 836.67 754.99 838.12 780.60 C 832.83 780.72 792.83 780.72 718.12 780.60 Z" fill="url(#linearGradient-10)" fill-rule="nonzero" group-id="1,2,6" id="路径-47" node-id="119" stroke="none" target-height="26.388855" target-width="120" target-x="718.12024" target-y="754.3319"></path></g></g><g node-id="467"><g node-id="471"><path d="M 292.95 229.25 L 302.71 225.70 L 330.37 286.52 L 310.86 293.63 Z" fill="url(#linearGradient-11)" fill-rule="nonzero" group-id="1,3,7" id="路径" node-id="122" stroke="none" target-height="67.92697" target-width="37.42154" target-x="292.9525" target-y="225.70059"></path><path d="M 313.02 269.21 L 313.02 269.21 C 350.75 255.48 392.46 274.93 406.19 312.65 L 409.63 322.11 C 423.36 359.83 403.91 401.54 366.18 415.27 L 366.18 415.27 C 328.46 429.01 286.75 409.55 273.02 371.83 L 269.58 362.38 C 255.85 324.65 275.30 282.94 313.02 269.21 Z" fill="url(#linearGradient-12)" fill-rule="nonzero" group-id="1,3,7" id="矩形" node-id="123" stroke="none" target-height="173.52692" target-width="167.5156" target-x="255.84506" target-y="255.47864"></path><path d="M 497.37 312.27 C 509.95 346.84 454.62 398.72 373.78 428.15 C 292.94 457.57 217.21 453.39 204.62 418.82 C 192.04 384.25 247.37 332.37 328.21 302.95 C 409.05 273.52 484.78 277.70 497.37 312.27 Z" fill="url(#linearGradient-13)" fill-rule="nonzero" group-id="1,3,7" id="椭圆形" node-id="124" stroke="none" target-height="184.04501" target-width="317.91138" target-x="192.0404" target-y="273.52444"></path><path d="M 497.37 320.27 C 509.95 354.84 454.62 406.72 373.78 436.14 C 292.94 465.56 217.21 461.39 204.62 426.82 C 192.04 392.24 247.37 340.37 328.21 310.94 C 409.05 281.52 484.78 285.69 497.37 320.27 Z" fill="url(#linearGradient-14)" fill-rule="nonzero" group-id="1,3,7" id="椭圆形备份" node-id="125" stroke="none" target-height="184.04498" target-width="317.9114" target-x="192.03934" target-y="281.51935"></path><path d="M 440.72 346.79 C 447.01 364.08 412.79 392.40 364.29 410.06 C 315.78 427.71 271.36 428.01 265.07 410.72 C 258.78 393.44 293.00 365.11 341.50 347.46 C 390.01 329.80 434.43 329.51 440.72 346.79 Z" fill="url(#linearGradient-15)" fill-rule="nonzero" group-id="1,3,7" id="椭圆形" node-id="126" stroke="none" target-height="98.5029" target-width="188.23016" target-x="258.77866" target-y="329.507"></path><g node-id="480"><path d="M 263.17 405.51 L 438.82 341.58 L 798.88 860.67 L 282.53 960.50 Z" fill="url(#linearGradient-16)" fill-opacity="0.3" fill-rule="nonzero" group-id="1,3,7,16" id="路径" node-id="127" stroke="none" target-height="618.92035" target-width="535.7086" target-x="263.17166" target-y="341.57672"></path></g><path d="M 304.86 224.92 C 306.37 229.07 304.45 233.58 300.57 234.99 C 296.69 236.40 292.32 234.18 290.81 230.03 C 289.30 225.88 291.22 221.38 295.10 219.96 C 298.98 218.55 303.35 220.77 304.86 224.92 Z" fill="url(#linearGradient-17)" fill-rule="nonzero" group-id="1,3,7" id="椭圆形" node-id="128" stroke="none" target-height="17.849426" target-width="17.072662" target-x="289.29523" target-y="218.55173"></path></g><path d="M 536.54 288.85 L 536.54 288.72 C 529.03 267.56 504.59 257.63 483.84 260.68 C 499.22 251.12 524.61 248.57 536.53 263.23 L 536.53 263.35 C 548.45 248.82 573.97 251.24 589.23 260.80 C 568.48 257.87 544.04 267.82 536.53 288.85 L 536.54 288.85 Z M 570.71 224.64 L 570.71 224.56 C 566.29 212.11 551.90 206.24 539.69 208.05 C 548.74 202.43 563.69 200.93 570.71 209.56 L 570.71 209.63 C 577.72 201.08 592.75 202.50 601.73 208.13 C 589.53 206.40 575.13 212.26 570.71 224.64 L 570.71 224.64 Z M 655.15 214.26 L 655.15 214.20 C 652.08 205.57 642.11 201.51 633.64 202.76 C 639.92 198.86 650.28 197.82 655.15 203.80 L 655.15 203.85 C 660.01 197.92 670.42 198.91 676.65 202.81 C 668.19 201.62 658.22 205.67 655.15 214.26 L 655.15 214.26 Z M 611.01 170.40 L 611.01 170.35 C 607.95 161.71 597.98 157.66 589.51 158.90 C 595.79 155.00 606.15 153.96 611.01 159.94 L 611.01 160.00 C 615.88 154.07 626.29 155.06 632.52 158.96 C 624.05 157.76 614.09 161.82 611.01 170.40 L 611.01 170.40 Z M 729.03 219.19 L 729.03 219.16 C 726.91 213.17 719.99 210.36 714.12 211.22 C 718.47 208.52 725.66 207.80 729.03 211.95 L 729.03 211.98 C 732.41 207.87 739.62 208.56 743.94 211.26 C 738.07 210.43 731.15 213.24 729.03 219.19 Z" fill="url(#linearGradient-18)" fill-rule="nonzero" group-id="1,3" id="形状结合" node-id="129" stroke="none" target-height="134.88255" target-width="260.09747" target-x="483.83948" target-y="153.963"></path><g node-id="472"><path d="M 362.21 493.07 L 367.04 475.07 L 373.02 476.67 L 375.51 467.39 L 369.53 465.78 L 381.49 421.15 L 371.64 418.51 L 359.67 463.15 L 345.90 459.46 C 344.80 459.16 343.98 458.66 343.43 457.94 C 342.72 456.94 342.50 455.94 342.77 454.93 C 342.86 454.59 343.14 453.87 343.60 452.78 L 343.60 452.78 L 359.99 415.39 L 350.23 412.78 L 332.28 453.33 C 332.02 453.94 331.80 454.55 331.63 455.18 C 331.08 457.26 331.04 459.05 331.51 460.55 C 332.66 464.19 334.89 466.46 338.23 467.35 L 338.23 467.35 L 357.18 472.43 L 352.36 490.43 L 362.21 493.07 Z" fill="url(#linearGradient-19)" fill-rule="nonzero" group-id="1,3,8" id="4" node-id="130" stroke="none" target-height="80.29605" target-width="50.452637" target-x="331.03708" target-y="412.77774"></path></g><g node-id="473"><path d="M 428.10 671.53 L 421.34 646.33 L 429.73 644.08 L 426.24 631.08 L 417.86 633.33 L 401.11 570.84 L 387.31 574.54 L 404.06 637.02 L 384.79 642.19 C 383.25 642.60 381.89 642.56 380.72 642.07 C 379.16 641.36 378.20 640.30 377.82 638.89 C 377.69 638.40 377.52 637.34 377.32 635.70 L 377.32 635.70 L 371.01 578.90 L 357.34 582.56 L 363.98 644.29 C 364.09 645.21 364.26 646.10 364.49 646.98 C 365.27 649.89 366.48 652.09 368.10 653.58 C 372.04 657.20 376.35 658.38 381.01 657.13 L 381.01 657.13 L 407.55 650.02 L 414.30 675.23 L 428.10 671.53 Z" fill="url(#linearGradient-20)" fill-rule="nonzero" group-id="1,3,9" id="4" node-id="131" stroke="none" target-height="104.38751" target-width="72.384155" target-x="357.34268" target-y="570.83984"></path></g><g node-id="474"><path d="M 441.28 542.90 C 442.83 543.31 444.70 543.33 446.90 542.95 C 448.77 542.64 450.39 542.09 451.78 541.29 C 455.08 539.38 457.41 535.88 458.77 530.79 L 458.77 530.79 L 473.61 475.42 C 474.72 471.28 474.42 467.27 472.70 463.42 C 471.03 459.70 467.55 457.13 462.27 455.72 L 462.27 455.72 L 439.87 449.71 C 436.02 448.68 432.31 449.24 428.74 451.40 C 425.12 453.62 422.65 457.14 421.36 461.97 L 421.36 461.97 L 406.59 517.11 C 405.33 521.79 405.72 525.83 407.76 529.25 C 410.00 532.96 413.40 535.43 417.97 536.65 L 417.97 536.65 L 441.28 542.90 Z M 439.74 530.54 L 422.99 526.05 C 419.18 525.03 417.81 522.53 418.88 518.53 L 418.88 518.53 L 433.31 464.69 C 433.65 463.40 434.42 462.44 435.60 461.78 C 436.68 461.22 438.01 461.16 439.60 461.58 L 439.60 461.58 L 458.04 466.52 C 461.33 467.40 462.48 469.65 461.51 473.27 L 461.51 473.27 L 447.34 526.15 C 446.76 528.34 445.97 529.77 444.98 530.43 C 443.86 531.14 442.11 531.18 439.74 530.54 L 439.74 530.54 Z" fill="url(#linearGradient-21)" fill-rule="nonzero" group-id="1,3,10" id="0" node-id="132" stroke="none" target-height="94.648346" target-width="69.38791" target-x="405.33304" target-y="448.681"></path></g><g node-id="475"><g node-id="481"><g node-id="486"><path d="M 621.30 341.21 C 614.76 341.21 609.61 343.31 605.89 347.63 C 602.29 351.71 600.55 356.98 600.55 363.52 C 600.55 369.99 602.29 375.27 605.89 379.35 C 609.61 383.54 614.76 385.70 621.30 385.70 C 627.78 385.70 632.94 383.60 636.72 379.41 C 640.32 375.33 642.12 370.05 642.12 363.52 C 642.12 356.92 640.32 351.59 636.72 347.57 C 632.94 343.31 627.78 341.21 621.30 341.21 Z M 621.30 346.97 C 625.86 346.97 629.40 348.41 631.86 351.41 C 634.26 354.34 635.52 358.36 635.52 363.52 C 635.52 368.61 634.26 372.63 631.86 375.51 C 629.40 378.45 625.86 379.95 621.30 379.95 C 616.74 379.95 613.20 378.39 610.69 375.39 C 608.29 372.45 607.09 368.49 607.09 363.52 C 607.09 358.48 608.29 354.52 610.69 351.59 C 613.20 348.47 616.74 346.97 621.30 346.97 Z" fill="#909aa9" fill-rule="nonzero" group-id="1,3,11,17,22" node-id="410" stroke="none" target-height="44.489227" target-width="41.56848" target-x="600.5483" target-y="341.21283"></path></g><path d="M 621.30 341.21 C 614.76 341.21 609.61 343.31 605.89 347.63 C 602.29 351.71 600.55 356.98 600.55 363.52 C 600.55 369.99 602.29 375.27 605.89 379.35 C 609.61 383.54 614.76 385.70 621.30 385.70 C 627.78 385.70 632.94 383.60 636.72 379.41 C 640.32 375.33 642.12 370.05 642.12 363.52 C 642.12 356.92 640.32 351.59 636.72 347.57 C 632.94 343.31 627.78 341.21 621.30 341.21 Z M 621.30 346.97 C 625.86 346.97 629.40 348.41 631.86 351.41 C 634.26 354.34 635.52 358.36 635.52 363.52 C 635.52 368.61 634.26 372.63 631.86 375.51 C 629.40 378.45 625.86 379.95 621.30 379.95 C 616.74 379.95 613.20 378.39 610.69 375.39 C 608.29 372.45 607.09 368.49 607.09 363.52 C 607.09 358.48 608.29 354.52 610.69 351.59 C 613.20 348.47 616.74 346.97 621.30 346.97 Z" fill="url(#linearGradient-22)" fill-rule="nonzero" group-id="1,3,11,17,23" node-id="415" stroke="none" target-height="44.489227" target-width="41.56848" target-x="600.5483" target-y="341.21283"></path></g><g node-id="482"><g node-id="488"><path d="M 662.39 353.02 C 657.71 353.02 653.93 354.58 651.11 357.70 C 648.30 360.76 646.92 364.66 646.92 369.39 C 646.92 374.07 648.30 377.97 651.05 380.97 C 653.93 384.08 657.71 385.70 662.39 385.70 C 667.07 385.70 670.85 384.08 673.73 380.97 C 676.49 377.97 677.87 374.07 677.87 369.39 C 677.87 364.66 676.43 360.76 673.67 357.70 C 670.85 354.58 667.07 353.02 662.39 353.02 Z M 662.39 358.24 C 665.33 358.24 667.61 359.38 669.29 361.72 C 670.73 363.70 671.45 366.28 671.45 369.39 C 671.45 372.45 670.73 374.97 669.29 377.01 C 667.61 379.29 665.33 380.49 662.39 380.49 C 659.45 380.49 657.17 379.29 655.55 377.01 C 654.11 375.03 653.45 372.51 653.45 369.39 C 653.45 366.28 654.11 363.70 655.55 361.72 C 657.17 359.38 659.45 358.24 662.39 358.24 Z" fill="#909aa9" fill-rule="nonzero" group-id="1,3,11,18,24" node-id="422" stroke="none" target-height="32.6774" target-width="30.951477" target-x="646.9154" target-y="353.02466"></path></g><path d="M 662.39 353.02 C 657.71 353.02 653.93 354.58 651.11 357.70 C 648.30 360.76 646.92 364.66 646.92 369.39 C 646.92 374.07 648.30 377.97 651.05 380.97 C 653.93 384.08 657.71 385.70 662.39 385.70 C 667.07 385.70 670.85 384.08 673.73 380.97 C 676.49 377.97 677.87 374.07 677.87 369.39 C 677.87 364.66 676.43 360.76 673.67 357.70 C 670.85 354.58 667.07 353.02 662.39 353.02 Z M 662.39 358.24 C 665.33 358.24 667.61 359.38 669.29 361.72 C 670.73 363.70 671.45 366.28 671.45 369.39 C 671.45 372.45 670.73 374.97 669.29 377.01 C 667.61 379.29 665.33 380.49 662.39 380.49 C 659.45 380.49 657.17 379.29 655.55 377.01 C 654.11 375.03 653.45 372.51 653.45 369.39 C 653.45 366.28 654.11 363.70 655.55 361.72 C 657.17 359.38 659.45 358.24 662.39 358.24 Z" fill="url(#linearGradient-24)" fill-rule="nonzero" group-id="1,3,11,18,25" node-id="427" stroke="none" target-height="32.6774" target-width="30.951477" target-x="646.9154" target-y="353.02466"></path></g><g node-id="483"><g node-id="490"><path d="M 699.46 353.02 C 695.26 353.02 692.02 354.52 689.86 357.58 L 689.86 353.86 L 683.93 353.86 L 683.93 396.73 L 690.28 396.73 L 690.28 380.31 C 692.80 383.90 695.92 385.70 699.76 385.70 C 704.20 385.70 707.74 384.08 710.26 380.85 C 712.60 377.85 713.80 374.07 713.80 369.51 C 713.80 364.72 712.60 360.88 710.20 357.88 C 707.56 354.64 704.02 353.02 699.46 353.02 Z M 698.50 358.18 C 701.62 358.18 703.90 359.26 705.40 361.54 C 706.60 363.46 707.26 366.10 707.26 369.51 C 707.26 372.93 706.54 375.57 705.22 377.49 C 703.72 379.53 701.44 380.55 698.32 380.55 C 695.92 380.55 694.00 379.59 692.56 377.73 C 690.88 375.69 690.10 372.99 690.10 369.69 L 690.10 369.15 C 690.10 365.98 690.76 363.40 692.08 361.48 C 693.58 359.26 695.74 358.18 698.50 358.18 Z" fill="#909aa9" fill-rule="nonzero" group-id="1,3,11,19,26" node-id="434" stroke="none" target-height="43.709778" target-width="29.871704" target-x="683.9252" target-y="353.02466"></path></g><path d="M 699.46 353.02 C 695.26 353.02 692.02 354.52 689.86 357.58 L 689.86 353.86 L 683.93 353.86 L 683.93 396.73 L 690.28 396.73 L 690.28 380.31 C 692.80 383.90 695.92 385.70 699.76 385.70 C 704.20 385.70 707.74 384.08 710.26 380.85 C 712.60 377.85 713.80 374.07 713.80 369.51 C 713.80 364.72 712.60 360.88 710.20 357.88 C 707.56 354.64 704.02 353.02 699.46 353.02 Z M 698.50 358.18 C 701.62 358.18 703.90 359.26 705.40 361.54 C 706.60 363.46 707.26 366.10 707.26 369.51 C 707.26 372.93 706.54 375.57 705.22 377.49 C 703.72 379.53 701.44 380.55 698.32 380.55 C 695.92 380.55 694.00 379.59 692.56 377.73 C 690.88 375.69 690.10 372.99 690.10 369.69 L 690.10 369.15 C 690.10 365.98 690.76 363.40 692.08 361.48 C 693.58 359.26 695.74 358.18 698.50 358.18 Z" fill="url(#linearGradient-26)" fill-rule="nonzero" group-id="1,3,11,19,27" node-id="439" stroke="none" target-height="43.709778" target-width="29.871704" target-x="683.9252" target-y="353.02466"></path></g><g node-id="484"><g node-id="492"><path d="M 731.37 353.02 C 727.65 353.02 724.59 353.80 722.25 355.42 C 719.92 356.98 718.78 359.20 718.78 362.02 C 718.78 364.66 719.98 366.76 722.37 368.25 C 723.81 369.21 726.39 370.11 730.05 370.95 C 733.23 371.67 735.33 372.27 736.29 372.75 C 738.09 373.59 739.05 374.79 739.05 376.29 C 739.05 379.05 736.53 380.49 731.61 380.49 C 729.21 380.49 727.53 380.07 726.45 379.29 C 725.37 378.45 724.59 376.95 724.23 374.85 L 718.00 374.85 C 718.72 382.04 723.27 385.70 731.79 385.70 C 740.97 385.70 745.59 382.40 745.59 375.87 C 745.59 373.11 744.33 370.95 741.87 369.39 C 740.19 368.31 737.55 367.29 734.01 366.46 C 730.89 365.68 728.85 365.08 727.77 364.60 C 726.09 363.82 725.25 362.92 725.25 361.84 C 725.25 360.64 725.79 359.68 726.93 359.08 C 727.89 358.48 729.33 358.24 731.25 358.24 C 733.41 358.24 735.09 358.60 736.17 359.32 C 737.19 359.98 737.91 361.12 738.39 362.80 L 744.57 362.80 C 743.85 356.26 739.41 353.02 731.37 353.02 Z" fill="#909aa9" fill-rule="nonzero" group-id="1,3,11,20,28" node-id="446" stroke="none" target-height="32.6774" target-width="27.592407" target-x="717.9957" target-y="353.02466"></path></g><path d="M 731.37 353.02 C 727.65 353.02 724.59 353.80 722.25 355.42 C 719.92 356.98 718.78 359.20 718.78 362.02 C 718.78 364.66 719.98 366.76 722.37 368.25 C 723.81 369.21 726.39 370.11 730.05 370.95 C 733.23 371.67 735.33 372.27 736.29 372.75 C 738.09 373.59 739.05 374.79 739.05 376.29 C 739.05 379.05 736.53 380.49 731.61 380.49 C 729.21 380.49 727.53 380.07 726.45 379.29 C 725.37 378.45 724.59 376.95 724.23 374.85 L 718.00 374.85 C 718.72 382.04 723.27 385.70 731.79 385.70 C 740.97 385.70 745.59 382.40 745.59 375.87 C 745.59 373.11 744.33 370.95 741.87 369.39 C 740.19 368.31 737.55 367.29 734.01 366.46 C 730.89 365.68 728.85 365.08 727.77 364.60 C 726.09 363.82 725.25 362.92 725.25 361.84 C 725.25 360.64 725.79 359.68 726.93 359.08 C 727.89 358.48 729.33 358.24 731.25 358.24 C 733.41 358.24 735.09 358.60 736.17 359.32 C 737.19 359.98 737.91 361.12 738.39 362.80 L 744.57 362.80 C 743.85 356.26 739.41 353.02 731.37 353.02 Z" fill="url(#linearGradient-28)" fill-rule="nonzero" group-id="1,3,11,20,29" node-id="451" stroke="none" target-height="32.6774" target-width="27.592407" target-x="717.9957" target-y="353.02466"></path></g><g node-id="485"><g node-id="494"><path d="M 757.34 376.29 C 756.15 376.29 755.13 376.65 754.29 377.49 C 753.39 378.27 752.97 379.29 752.97 380.55 C 752.97 381.74 753.39 382.76 754.29 383.60 C 755.13 384.44 756.15 384.86 757.34 384.86 C 758.54 384.86 759.62 384.44 760.52 383.66 C 761.36 382.82 761.78 381.80 761.78 380.55 C 761.78 379.29 761.36 378.27 760.52 377.49 C 759.68 376.65 758.60 376.29 757.34 376.29 Z M 777.38 376.29 C 776.18 376.29 775.16 376.65 774.32 377.49 C 773.42 378.27 773.00 379.29 773.00 380.55 C 773.00 381.74 773.42 382.76 774.32 383.60 C 775.16 384.44 776.18 384.86 777.38 384.86 C 778.58 384.86 779.66 384.44 780.56 383.66 C 781.40 382.82 781.82 381.80 781.82 380.55 C 781.82 379.29 781.40 378.27 780.56 377.49 C 779.72 376.65 778.64 376.29 777.38 376.29 Z M 797.35 376.29 C 796.15 376.29 795.07 376.65 794.23 377.49 C 793.39 378.27 792.98 379.29 792.98 380.55 C 792.98 381.74 793.39 382.76 794.23 383.60 C 795.07 384.44 796.15 384.86 797.35 384.86 C 798.55 384.86 799.63 384.44 800.47 383.66 C 801.31 382.82 801.79 381.80 801.79 380.55 C 801.79 379.29 801.37 378.27 800.53 377.49 C 799.69 376.65 798.61 376.29 797.35 376.29 Z" fill="#909aa9" fill-rule="nonzero" group-id="1,3,11,21,30" node-id="458" stroke="none" target-height="8.574066" target-width="48.826477" target-x="752.96606" target-y="376.28857"></path></g><path d="M 757.34 376.29 C 756.15 376.29 755.13 376.65 754.29 377.49 C 753.39 378.27 752.97 379.29 752.97 380.55 C 752.97 381.74 753.39 382.76 754.29 383.60 C 755.13 384.44 756.15 384.86 757.34 384.86 C 758.54 384.86 759.62 384.44 760.52 383.66 C 761.36 382.82 761.78 381.80 761.78 380.55 C 761.78 379.29 761.36 378.27 760.52 377.49 C 759.68 376.65 758.60 376.29 757.34 376.29 Z M 777.38 376.29 C 776.18 376.29 775.16 376.65 774.32 377.49 C 773.42 378.27 773.00 379.29 773.00 380.55 C 773.00 381.74 773.42 382.76 774.32 383.60 C 775.16 384.44 776.18 384.86 777.38 384.86 C 778.58 384.86 779.66 384.44 780.56 383.66 C 781.40 382.82 781.82 381.80 781.82 380.55 C 781.82 379.29 781.40 378.27 780.56 377.49 C 779.72 376.65 778.64 376.29 777.38 376.29 Z M 797.35 376.29 C 796.15 376.29 795.07 376.65 794.23 377.49 C 793.39 378.27 792.98 379.29 792.98 380.55 C 792.98 381.74 793.39 382.76 794.23 383.60 C 795.07 384.44 796.15 384.86 797.35 384.86 C 798.55 384.86 799.63 384.44 800.47 383.66 C 801.31 382.82 801.79 381.80 801.79 380.55 C 801.79 379.29 801.37 378.27 800.53 377.49 C 799.69 376.65 798.61 376.29 797.35 376.29 Z" fill="url(#linearGradient-30)" fill-rule="nonzero" group-id="1,3,11,21,31" node-id="463" stroke="none" target-height="8.574066" target-width="48.826477" target-x="752.96606" target-y="376.28857"></path></g></g></g><g node-id="468"><path d="M 661.74 837.04 C 661.74 845.88 639.43 853.04 611.90 853.04 C 584.38 853.04 562.06 845.88 562.06 837.04 C 562.06 828.21 584.38 821.05 611.90 821.05 C 639.43 821.05 661.74 828.21 661.74 837.04 Z" fill="#ccdcf6" fill-rule="evenodd" group-id="1,4" id="椭圆形" node-id="150" stroke="none" target-height="31.98883" target-width="99.67993" target-x="562.06415" target-y="821.0479"></path><path d="M 598.57 649.11 L 614.52 649.11 L 614.52 665.10 L 598.57 665.10 Z" fill="url(#linearGradient-32)" fill-rule="evenodd" group-id="1,4" id="矩形" node-id="151" stroke="none" target-height="15.994446" target-width="15.94873" target-x="598.57263" target-y="649.10785"></path><g node-id="476"><path d="M 629.63 637.23 C 628.60 639.79 626.52 641.36 624.98 640.74 C 623.45 640.13 623.05 637.55 624.08 634.99 C 625.12 632.43 627.20 630.86 628.73 631.48 C 630.26 632.10 630.66 634.67 629.63 637.23 Z" fill="#fee0bc" fill-rule="evenodd" group-id="1,4,12" id="椭圆形" node-id="152" stroke="none" target-height="10.502747" target-width="7.614868" target-x="623.0487" target-y="630.86096"></path></g><g node-id="477"><path d="M 582.24 637.28 C 583.31 639.82 585.42 641.36 586.94 640.71 C 588.46 640.07 588.82 637.48 587.74 634.94 C 586.67 632.40 584.56 630.87 583.04 631.51 C 581.52 632.16 581.16 634.74 582.24 637.28 Z" fill="#fee0bc" fill-rule="evenodd" group-id="1,4,13" id="椭圆形备份-2" node-id="153" stroke="none" target-height="10.489014" target-width="7.6640015" target-x="581.15857" target-y="630.86786"></path></g><path d="M 626.48 633.11 C 626.48 644.16 617.56 653.11 606.55 653.11 C 595.54 653.11 586.61 644.16 586.61 633.11 C 586.61 622.07 595.54 613.12 606.55 613.12 C 617.56 613.12 626.48 622.07 626.48 633.11 Z" fill="url(#linearGradient-33)" fill-rule="evenodd" group-id="1,4" id="椭圆形" node-id="154" stroke="none" target-height="39.986084" target-width="39.87195" target-x="586.611" target-y="613.12036"></path><path d="M 596.58 825.48 L 595.76 830.90 C 592.39 831.01 588.73 832.00 584.77 833.88 C 582.23 835.51 582.11 836.26 582.03 837.67 C 581.98 838.61 589.17 838.61 603.61 837.67 L 603.61 823.50 L 596.58 825.48 Z" fill="url(#linearGradient1)" fill-rule="nonzero" group-id="1,4" id="路径-52" node-id="155" stroke="none" target-height="15.110657" target-width="21.630005" target-x="581.9783" target-y="823.4962"></path><g node-id="478"><path d="M 626.94 825.48 L 627.76 830.90 C 631.13 831.01 634.79 832.00 638.75 833.88 C 641.29 835.51 641.40 836.26 641.49 837.67 C 641.54 838.61 634.35 838.61 619.91 837.67 L 619.91 823.50 L 626.94 825.48 Z" fill="url(#linearGradient-34)" fill-rule="nonzero" group-id="1,4,14" id="路径-52备份" node-id="156" stroke="none" target-height="15.110657" target-width="21.629944" target-x="619.91095" target-y="823.4962"></path></g><path d="M 588.89 726.50 L 594.64 827.38 L 605.92 827.22 L 610.80 734.10 L 618.39 827.18 L 628.99 827.01 L 631.83 726.72 Z" fill="url(#linearGradient-35)" fill-rule="nonzero" group-id="1,4" id="路径-49" node-id="157" stroke="none" target-height="100.885925" target-width="42.938477" target-x="588.8894" target-y="726.4976"></path><path d="M 652.40 684.47 C 653.88 683.29 655.43 682.83 657.02 683.10 C 658.10 683.12 658.72 682.85 658.88 682.29 C 660.74 682.01 661.48 682.37 661.11 683.38 C 660.74 684.39 660.27 684.76 659.71 684.47 L 662.27 685.65 L 664.71 683.92 C 667.72 683.96 668.86 684.97 668.14 686.97 C 666.87 689.05 663.43 691.67 658.88 689.49 C 657.88 688.73 656.97 688.38 656.16 688.46 L 652.40 684.47 Z" fill="#fee0bc" fill-rule="evenodd" group-id="1,4" id="路径-50" node-id="158" stroke="none" target-height="9.657532" target-width="16.464417" target-x="652.3998" target-y="682.00867"></path><g node-id="479"><path d="M 564.83 691.17 C 563.81 689.57 562.50 688.63 560.90 688.36 C 559.87 688.04 559.38 687.58 559.41 687.00 C 557.74 686.12 556.92 686.22 556.94 687.30 C 556.97 688.37 557.29 688.87 557.91 688.78 L 555.11 689.06 L 553.37 686.63 C 550.51 685.68 549.10 686.27 549.14 688.39 C 549.65 690.78 552.06 694.37 557.07 693.80 C 558.26 693.41 559.23 693.38 559.98 693.71 L 564.83 691.17 Z" fill="#fee0bc" fill-rule="evenodd" group-id="1,4,15" id="路径-50备份" node-id="159" stroke="none" target-height="8.68927" target-width="15.730774" target-x="549.0953" target-y="685.6842"></path></g><path d="M 597.99 656.47 L 607.92 663.02 L 615.10 656.08 L 636.74 664.18 L 641.93 691.77 L 652.27 683.10 L 659.18 689.44 L 643.16 713.58 C 638.56 718.49 635.14 718.49 632.88 713.58 C 632.38 710.71 630.94 700.94 628.56 684.27 L 633.16 727.64 L 587.64 728.11 L 590.81 684.28 C 590.19 704.14 587.26 713.91 582.00 713.58 C 578.24 712.57 570.43 706.83 558.57 696.35 L 561.58 688.25 L 575.80 695.75 L 578.77 668.82 L 597.99 656.47 Z" fill="url(#linearGradient-36)" fill-rule="evenodd" group-id="1,4" id="路径-48" node-id="160" stroke="none" target-height="72.03259" target-width="100.61682" target-x="558.5678" target-y="656.077"></path><path d="M 613.90 598.13 C 613.90 601.99 609.88 605.12 604.93 605.12 C 599.97 605.12 595.96 601.99 595.96 598.13 C 595.96 594.26 599.97 591.13 604.93 591.13 C 609.88 591.13 613.90 594.26 613.90 598.13 Z" fill="#483029" fill-rule="evenodd" group-id="1,4" id="椭圆形" node-id="161" stroke="none" target-height="13.995117" target-width="17.942383" target-x="595.9553" target-y="591.12805"></path><path d="M 583.78 635.11 C 597.61 627.59 605.06 621.35 606.13 616.39 C 608.47 623.12 622.79 633.54 628.48 633.44 C 631.63 624.34 632.50 615.77 622.56 607.41 C 612.62 599.05 601.16 599.01 588.60 607.41 C 580.16 614.53 578.55 623.76 583.78 635.11 Z" fill="#483029" fill-rule="evenodd" group-id="1,4" id="路径-51" node-id="162" stroke="none" target-height="36.10675" target-width="53.9494" target-x="578.55414" target-y="599.006"></path></g></g></svg>